<mxfile host="app.diagrams.net" agent="Mozilla/5.0 (Macintosh; Intel Mac OS X 10_15_7) AppleWebKit/537.36 (KHTML, like Gecko) Chrome/132.0.0.0 Safari/537.36" version="26.1.0">
  <diagram name="페이지-1" id="_Vhi4Y0E-lkRowLBVy3J">
    <mxGraphModel dx="1584" dy="1044" grid="1" gridSize="10" guides="1" tooltips="1" connect="1" arrows="1" fold="1" page="1" pageScale="1" pageWidth="827" pageHeight="1169" math="0" shadow="0">
      <root>
        <mxCell id="0" />
        <mxCell id="1" parent="0" />
        <mxCell id="Ff6j8b3z-YvI5tU1uBFp-2" style="edgeStyle=orthogonalEdgeStyle;rounded=1;orthogonalLoop=1;jettySize=auto;html=1;exitX=1;exitY=0.5;exitDx=0;exitDy=0;fillColor=#000000;strokeColor=none;curved=0;" edge="1" parent="1" source="Ff6j8b3z-YvI5tU1uBFp-3" target="Ff6j8b3z-YvI5tU1uBFp-23">
          <mxGeometry relative="1" as="geometry">
            <Array as="points">
              <mxPoint x="865" y="683" />
              <mxPoint x="865" y="785" />
              <mxPoint x="689" y="785" />
            </Array>
          </mxGeometry>
        </mxCell>
        <mxCell id="Ff6j8b3z-YvI5tU1uBFp-3" value="rabbitmq (message relay broker)" style="fillColor=#030303;strokeColor=#FCFCFC;dashed=0;verticalAlign=top;fontStyle=0;fontColor=#FCFCFC;shadow=1;" vertex="1" parent="1">
          <mxGeometry x="554.79" y="605" width="290" height="155" as="geometry" />
        </mxCell>
        <mxCell id="Ff6j8b3z-YvI5tU1uBFp-4" value="Generic group" style="fillColor=#050505;strokeColor=#190033;dashed=0;verticalAlign=top;fontStyle=0;fontColor=#232F3D;shadow=1;" vertex="1" parent="1">
          <mxGeometry x="324" y="170" width="340" height="430" as="geometry" />
        </mxCell>
        <mxCell id="Ff6j8b3z-YvI5tU1uBFp-5" style="edgeStyle=orthogonalEdgeStyle;rounded=0;orthogonalLoop=1;jettySize=auto;html=1;" edge="1" parent="1" source="Ff6j8b3z-YvI5tU1uBFp-33" target="Ff6j8b3z-YvI5tU1uBFp-8">
          <mxGeometry relative="1" as="geometry" />
        </mxCell>
        <mxCell id="Ff6j8b3z-YvI5tU1uBFp-6" style="edgeStyle=orthogonalEdgeStyle;rounded=0;orthogonalLoop=1;jettySize=auto;html=1;" edge="1" parent="1" source="Ff6j8b3z-YvI5tU1uBFp-33" target="Ff6j8b3z-YvI5tU1uBFp-13">
          <mxGeometry relative="1" as="geometry" />
        </mxCell>
        <mxCell id="Ff6j8b3z-YvI5tU1uBFp-7" value="" style="group" vertex="1" connectable="0" parent="1">
          <mxGeometry x="387" y="326" width="207" height="120" as="geometry" />
        </mxCell>
        <mxCell id="Ff6j8b3z-YvI5tU1uBFp-8" value="faipt-contents-server&lt;br&gt;&lt;br&gt;&lt;br&gt;&lt;br&gt;&lt;br&gt;&lt;br&gt;&lt;br&gt;&lt;br&gt;" style="rounded=1;whiteSpace=wrap;html=1;" vertex="1" parent="Ff6j8b3z-YvI5tU1uBFp-7">
          <mxGeometry x="27.107030142249464" width="179.89296985775053" height="119.99999999999997" as="geometry" />
        </mxCell>
        <mxCell id="Ff6j8b3z-YvI5tU1uBFp-9" value="" style="group" vertex="1" connectable="0" parent="Ff6j8b3z-YvI5tU1uBFp-7">
          <mxGeometry y="39.999999999999986" width="55.51118327768376" height="39.999999999999986" as="geometry" />
        </mxCell>
        <mxCell id="Ff6j8b3z-YvI5tU1uBFp-10" value="" style="shape=or;whiteSpace=wrap;html=1;rotation=-180;" vertex="1" parent="Ff6j8b3z-YvI5tU1uBFp-9">
          <mxGeometry y="7.999999999999997" width="13.87779581942094" height="23.99999999999999" as="geometry" />
        </mxCell>
        <mxCell id="Ff6j8b3z-YvI5tU1uBFp-11" value="ws&lt;br&gt;client" style="rounded=1;whiteSpace=wrap;html=1;" vertex="1" parent="Ff6j8b3z-YvI5tU1uBFp-9">
          <mxGeometry x="6.93889790971047" width="48.57228536797329" height="39.999999999999986" as="geometry" />
        </mxCell>
        <mxCell id="Ff6j8b3z-YvI5tU1uBFp-12" value="`" style="group" vertex="1" connectable="0" parent="1">
          <mxGeometry x="387" y="460" width="207" height="120" as="geometry" />
        </mxCell>
        <mxCell id="Ff6j8b3z-YvI5tU1uBFp-13" value="faipt-contents-server&lt;br&gt;&lt;br&gt;&lt;br&gt;&lt;br&gt;&lt;br&gt;&lt;br&gt;&lt;br&gt;&lt;br&gt;" style="rounded=1;whiteSpace=wrap;html=1;" vertex="1" parent="Ff6j8b3z-YvI5tU1uBFp-12">
          <mxGeometry x="27.107030142249464" width="179.89296985775053" height="120" as="geometry" />
        </mxCell>
        <mxCell id="Ff6j8b3z-YvI5tU1uBFp-14" value="" style="group" vertex="1" connectable="0" parent="Ff6j8b3z-YvI5tU1uBFp-12">
          <mxGeometry y="40" width="55.51118327768376" height="40" as="geometry" />
        </mxCell>
        <mxCell id="Ff6j8b3z-YvI5tU1uBFp-15" value="" style="shape=or;whiteSpace=wrap;html=1;rotation=-180;" vertex="1" parent="Ff6j8b3z-YvI5tU1uBFp-14">
          <mxGeometry y="8" width="13.87779581942094" height="24" as="geometry" />
        </mxCell>
        <mxCell id="Ff6j8b3z-YvI5tU1uBFp-16" value="ws&lt;br&gt;client" style="rounded=1;whiteSpace=wrap;html=1;" vertex="1" parent="Ff6j8b3z-YvI5tU1uBFp-14">
          <mxGeometry x="6.93889790971047" width="48.57228536797329" height="40" as="geometry" />
        </mxCell>
        <mxCell id="Ff6j8b3z-YvI5tU1uBFp-17" value="" style="shape=image;verticalLabelPosition=bottom;labelBackgroundColor=default;verticalAlign=top;aspect=fixed;imageAspect=0;image=data:image/png,iVBORw0KGgoAAAANSUhEUgAAAOEAAADhCAMAAAAJbSJIAAAAeFBMVEX///8AAAD8/PzAwMDZ2dn5+fmnp6fz8/OTk5OwsLBhYWGHh4fIyMgtLS2Xl5d9fX3r6+ugoKBQUFDh4eF0dHTGxsa4uLjn5+fOzs6tra0fHx9KSkrV1dVFRUVmZmYWFhaCgoIpKSk7OztYWFhvb280NDQMDAwaGho4lqJdAAAGdklEQVR4nO2ZC3uiOhCGQySCWkFFAatovfb//8Mzk3AJEGxtd7u7z/neXpTbkC8zmUxACAAAAAAAAAAAAAAAAAAAAAAAAAAAAAAAAAAAAAAAAAAAAAAAAAAAAAAAAAAAAADA/xTZ3ZbS2in7J/xzBAsbpfW0RKkwCv9plWPPZmS85h+uJakQhef90wrTc7HbFXfvuCPOOcmjMB3VkpdCTD3va6blaDweL7O6e/zNy8tGSRMmA52mygCSyn2CHBw1QxbNbp+0ZOV5fI/AJ/bJ6HsKRcp95NebEW/uzS2VyCd9tol43AGPjqh0u92O894F3Ff7Od36uOEsI+1eSr7pw31b4ci782Zpfu05SKujYTQLHaRyWKG4sIW3nkChEr7XjA9SQCkjslY4+Y4P/bbCF7NZWo8fKjy4jnpeXJpSBDnHfNCfjryQz5h1G5FN2X+XROx39HmaBsaPGpFTg9TzCqVM00lKfzosI/5GP6pSaM4Rs9OtzV0rLBk/VBgce0cCIZYuhSR8Hqfmrkka31LuQhkeT6c5QXaOnn94Ppe6GtdWSAOx25SbrVAP4d2qwy4sL+4rlGWvdBUGgZJBjVL0j1S/ecc79ej9eHw/FdmvUXiULYWqkzJotMxthRM+12HZXBT07QfSrTB0xAGl0ixbUISGi4x8/4UoFUVRnG2j512x6viwcwllgFPPhy7TJhPnm5fNJtetX9O3zctIDSic7C6XFf0Y6HO35GEsqjyaxvHs5t2/MOPrVLnOc/q8eya4tMKkFNRretuHWmHcZZ23Ci49bS8rA26FFcEiaO6l/5HCqE7pTyqUuoPKu3GW9ha1wvXsLR71q2Hh8mGfbWv82grFA4VS5hSI98tGNHWElIvlci9Evp2kX6raluS5s8nnhW5ZpdA0akhhXrmXFd77CieDPnykkAfjbfrqeWNrTSH3UbQx3y/PR6nUzg+5yzhvlfNwrTByXRPcqxiuFHpRl9Dv+zCqY35QIQXUJRAZzYeLRonMTNKh3204flogpyd2FZdMPCuua4VxFM7yxO+zoYPznL4kbGAg09geLE8K2wovEyrdkvb6aMvhrzPd1tq7aAqg4Wp3UKB23IErByWuuhnCzjRX9ygzcRlzkwcV2ktXPcTXtZqmSugM9IkpljbWOG8rfB6p57P3BTcoo/j3NrVCn/cN1GSGRuH00GEaW87R1RYNsHqHrbAFReluIZKizHiNwkNesgnEs+g5eUXrlYSrwXlgK1Q9ha2cEvPwHcil88aJ1HemsvFbPqRa5d71oUrv3iutEL2RPU0tbMOJeJqU2308HN6bPq1mfCoprDqKeyBWgb2L3DNxKzxZ+b7y2ay1/cY1mmoPLJr74nfvFidWsUjjJ5zVxLZzP8u2aVeZqWqFyh5NrPDNvlAv4ALr9hah1XJ1rlT3cmk3c9C2ClTrqZNsV8ZfqGloiTs1LTjsy9Cqo7RZvtD+lVEoG8rHYU6sttddOBEdhZzfWhfRrKzXhVbXqlKiuWVvHfAx+mFIto2i7aJucF2XtlK+w4cfmdb/glsdIwsjfNiHtVXZ3VG39rPCWga6V7XWh3WvrbzuNO2PHpKxvDJbhWMe7gV5RH1Ql/5y6jC3ukcrzCofbK9rIo55MinWmmusc+7MnWUqUj2sLiztWs4YO230ZxWyxBk3OmkUctXi1cJdTzHedUrrL+k6Culy/UzmTMkj4BjwiuDnFZIPZ2VmqfYkYRRVdbJb4atWuHydN+jRZm3PX0cimLDjebrlB0smoU3Ujyssk517xUuMoqVFtHyrFLbzWsbR2DFipomwivfIlAzBzysc9RXWo7I/HeSVQtnMFZLXqXd+yGqZUIKfUt421aNV2i70jf4KhQ1tiebBXhmlzWxJQZixkb09XXLVuqOgDEw+5gpIpauRMjHzxxVK99TTUtgiGeqmejqqTf4tPhyaW59V2OcPKZyN2/TeK1Q8Urh3nN/nDynsEg05kRWeBhR+bm0zNvZ/kAGFTpRWeOsuROXnFZbPS7cfn/nrWFynPS4Td6YRMj/vimu/YA72vu9/pvRXIuXnvYOj4HfgDkfnq89yaugpqd6nfuZuvdXD70c61Ej3y12T8PvLQqlX6w/eGXZMPHq9+Ftwi/mmAQAAAAAAAAAAAAAAAAAAAAAAAAAAAAAAAAAAAAAAAAAAAAAAAAAAAAAAAAAAAAAAAAAAAAAAAHyS/wDkVlLSHxxnnAAAAABJRU5ErkJggg==;" vertex="1" parent="1">
          <mxGeometry x="160" y="360" width="90" height="90" as="geometry" />
        </mxCell>
        <mxCell id="Ff6j8b3z-YvI5tU1uBFp-18" value="" style="group" vertex="1" connectable="0" parent="1">
          <mxGeometry x="230" y="380" width="64.36079220601016" height="49.99999999999999" as="geometry" />
        </mxCell>
        <mxCell id="Ff6j8b3z-YvI5tU1uBFp-19" value="" style="shape=or;whiteSpace=wrap;html=1;rotation=0;" vertex="1" parent="Ff6j8b3z-YvI5tU1uBFp-18">
          <mxGeometry x="59" y="9.999999999999998" width="16.09019805150254" height="29.999999999999993" as="geometry" />
        </mxCell>
        <mxCell id="Ff6j8b3z-YvI5tU1uBFp-20" value="ws&lt;br&gt;server" style="rounded=1;whiteSpace=wrap;html=1;" vertex="1" parent="Ff6j8b3z-YvI5tU1uBFp-18">
          <mxGeometry x="8.04509902575127" width="56.31569318025889" height="49.99999999999999" as="geometry" />
        </mxCell>
        <mxCell id="Ff6j8b3z-YvI5tU1uBFp-21" value="" style="shape=image;verticalLabelPosition=bottom;labelBackgroundColor=default;verticalAlign=top;aspect=fixed;imageAspect=0;image=data:image/png,iVBORw0KGgoAAAANSUhEUgAAAOEAAADhCAMAAAAJbSJIAAAAyVBMVEX3YwD////2XQD//fz2aDj//vr++/f2ajz3WAD4cjP3ZwX808f0PAD7xK73YQD2UgD+6uH4azT5lGv/9fL2TQD2UAD6qo31RQD7sI793Mz7tpv1RwD95dn+7uf3ZB73bBv1UQ/5mnL1WCL7y7P4jWL2ZSH3czn4iVT6onr807/4fEf3Zhj3cCn3bAX3Yy73eEH7vKP4hlz6n335k3D4hmH4g0f4ezr949H8y7n4flL5kV73dzL2XRf2aUD5m3b3ckX3elT92cL7xqjM67T6AAAL8klEQVR4nO2df3eiOBfHIbE0MhpRQAS0LSMKSqe1nZ2Ozrg7++z7f1FPgrb+CiohqFi+5/SP9qSYjzcJyU1yryTnIAihfY+wdLwwurfJf+VRGUn8I0lNteoDkFIRSuChquXCKJyQVFL3vmKcCpAgEn31dFk8o2BCUkHFeQIUEKeyYfwf4MlRhDMKt2G/OgfpzLfGCebVPnmGUEaRhKRitj9AgJOPCqCBb4tFFEdIatVtDxGituC1IflBaPjaFckoipDUSHdmmfhWjGNHF8cozIaw3wINOlxk4IsZyTMaoNUXZkRRhF/akpGlA24KGFL7i6CaiSHsTu5dkK19ros8B7j3k66QugkghL1+YAE1ewNdQ8SSCqyg3xPQVrMT6nZoNVRhcCupDSu09bMTKl3HcFVh7XNdxI6u4XSVsxIqvXpUk/IBjBGlWlTvZWPMQAihPhrnx/fBOB7pWeaq/IRQ6fouyqMDbkpFrt9V+BE5CclK7iY0KV9+BlwIU0YzvOE2Ix8hlKHzkHWGloJRQg8O5JzH8RASA06b1ElxCr4lI0bNKZ8d0xOSj9GCO3BCwAUiuPuh8SyP0xLSRbxXAUASOYU5ApFO5EClxeECSG1DxbmVgHRKAy4ZyQ/At07ql2MqQtLZ+0F0yh64xYhRNOunHHJSEFInhVdtAPWk7XODEaugUfXSuTnS2FBrP5voPPb7YKQvx+e2lqLWxxP26gEyTzzAMBDJx5soqPeEE+ojDxnS+RroOqOKDeSNjl1XHUlod+YuznOOnUakqWJ33rEFEnbrj67YRXw2xS4A97F+lJvjMCHU7R8WuhT7vYsOOdabfYSb4xAh1H+GNXRB9ntXbMea91M/xLifEELNsUz17CMoU3RdZVqOdmAet4+QLuKBK10mn7SslgEOuACSCSFU7LElnfcNf0i0btbYVvYwJhHSNZJPB9CLBnwfVv096yo2YbyRexInRXYt3BzJ28dMQlLWIYv4y6f7EEZNJwGRQUjKTWcRSLsTf06RuoJoNmWuOXYI6UanPwAC91lOodgFMPBZW6u7NlS8ITq1kyK7YjcHGnq78/FtQjh5AUjARufpRbdWEZhNto24RaiHkXkmJ0V20YqbUajvI9RaBri0OXYa0Zej0dISCaH9YhXiFZgs+nK0XmyYQGiPa98KzUeFpW+1sc0mtGfWt6LzUeFv1sxmEWr+dQDGiL62S6i/XgtgjPiqbxFCuWOo1wJIEFWj8z67ebfhdIgKP8ishKXGcLRpQ+X7NZmQGtH8vm5DslhSxR3ZugyByFm3ofKXeUVtlApL5l/KByExYXRtJlwYEX4QzrINM6sz3XtPd+MjywkRltDLB6FsV7MQUmfQSokLL/rntWJ5z38JYbW7bKVQDnG62xGbT6KOINeqUVmumbQ2odspyLUOlhMnIIXUiDHhGGV5kmm9tUJnUq/XJ53wV2SxXXQqsBpvYee9XKDWcu/6aPxO2GtyN1J6ZDmYfNGWuwdQ10adN2P3KBh5BUftut1T3st1p87vfPeTSTOt6DEhlPsD3q8TS2D+urXHBUcvDUa5YX37FMVozH0x4ziBwUheELYxd4PBoAU3/ZTUVzffqjkZfMzRZjl6xcl+ypkwopNTSviLd+wmDWHY3fXf6R1js/lhDH7sni6E8kuuPllC9WtJ+Ie/zyOf5YTVrK1JLm7Yu8WgPInyNCL5Xp+XhH9zElKnY8gghD1z662IDcZGJpRH3APAcQJ/LwhvbrkJwf2ESRhtNT9sMvYUIOw2cya8vclKiB6nu22UvAt+bxJi3GB9EfkTVpTMhFXWzRaoj8EWIWJ1V6gVlzDYJmTbsLCEsu5fPWELlYSfgrDAI01pw5JQmM5NWPbD7CoJD6okXBX8pITlSJNdJeFBlYSrgmU/zEkl4UGVhKuCn5SwHGmyK0/Cz+dNZPm8C034zzYhvrZ+2N4mfLwyQmVibBbELSahcst/yuUY5UcIu7WPY09xVMuHKetKEpT/oFxvduRIqLyh1TkLDNAfZowgKHsg+aPxQnxVWyg/QnpSbiCBpfDdv0mXrvUXgMGaMMCbysKXKyHdow//3FYqlb9vn1usfeJ3xMnslharPC3UfBoQ3d3dzedRFDNmuUOXJyE9OwNvFEW5gTf7ogPTeFO0mKIT9Yg0ezQaTeuTSafdbrV+BdUB4LdkroS07h9KtuFGsY2iy9+VXjjnPpOWLyG3dpjpIfurItwhlh3e828FIZRlO+A0YmEIdY/znH1hCOW2y3cZpECEnNddSsKSsCQsCUvCkrAkLAlLwpKwJPxEhEd4cwpNuELbw1hkQij3pvWFplpidOAiE8phk/p/qQZNPymSdXEJoewj6sunznzq1H9LiA5cWEIod8CGF8112MGBC0z4Zz3wHZZAxN7CKS5hr7K5Q6pa7OjHnaJ6E3d2udVaSVgswt3TJiVhSXhphNffDxeEq6pjzH5bkImBWdT3ob5xYojGSfnJLNjZCSVSFEJ5DD7OzRCpqMWemBaWUJbtr2tpzVS1xjQhLDKh3H+y0PK0UMOw/sdcPhWbUNGc4G0hv5OQ6rDYhLKs97SFekl5HIpOeFglYUl4+YSFfh8eS2heN2GB56VHq7Bri5LwExEW1l9aEpaEJWGBCF8ZUW1PRfhY58yWnUbKPxltmCG653tU8HzVa/HO2paxL4XHLxWtbtDgfOMv45fKz/xXi9gxaIUKyvV7XhMMBcQRfj4iE2hWwjbf4mktjnCHP28Axq/7DsJkxyPPHvEmFwFROyaUM4TzJWPNYCcNmGDZY967a2DQXxBCvZIhJjsA7f+6iZ7AbFJ0bTT5jfjuWJKqNXUhcfWxhYJlvHyxmjid8Nejyx+bfhVXXw6lLPfiVWway9wIgmW5/JlCiQnxe24E8sLJmChIzU/cBpTW8lvQ8O+ZCLNfus7hwRs5Sq4/z8z15woicnKN4X8ObeV7kuF3zun7hWo7ZxfRaMg5f79IMfKuXVvuPMncyZ139fkP5U+Qw5LMbF6uA5EAvqydNb7KXLJBQi5ZGdrBFeQDljYsuJPT2S9+TmdzT05not615+Uufm71l0O51YkU7xmAwjHS6gI09JQd7+YOIc2b5g8AKFZTpXxg4HflXfftrg1pmdEsyhJj6+QidQXRrM/gYxLGgbqcJipSO8Wo6chsvy2TkJZVQn4v0EmF4zShnp4AmEAYM2q+Cy6ekaZ5BS6ZhiY63pMIKaNijy3pshHjOczYVvZsLCQTUkZ9BNyPKJYXp7haBhjpezdO9hHG11ocl24xXyIj7YCm5WgHNob2E8ZZX8MaSs5jfDbFHbDm/Ty4Y3KIkDLaP2iO38tCJHzIerOP2L08TEjUrT/SYfVi7LgYQB/rSWFR0xOSxXFn7uJLsSNNgO3OO+xbYLyEsj7ykEGefH5GTL5pA3kj9rVvfkKydKwHyDz7qEo/3kRBPeHmfiZCWdbaz+aZhxw6wJjPbe1wZXkIybBle9UGOF9TJQ0UNKqezVxDCCCkz4X9IEJncnPQj0VkjQTTHeFJRUilOLfxnvipGSkfwLdOUnQQYYR0XeVVYhfAKRljJwWotJTkNYQowsW6KrgDJ22qsQHvgj1rJJGE8UGlafOUvTHugZUp3+ErHsJ4yHEekHQaRvoZ6MFJOcBkJIxjqcdujtx748JJEe6N7J4HIYVUur6L+I4np5GKXL/LzK2QN2HsAhjXct3nIFMYqTY+sIjPj5BI6f0X1aS8GGO+qN5L/QoUSEgYu47h5oNIAF3DSbjgfTpCsq6yQ6uRR3dUG1ZoH7tGypNQhr1+YIl1AcSLeCvoizhiLYCQqDu5dwXu5dApmns/OcpJcVBiCGX5S1syxJ3+A4bUFnUbRxQhWVe1QEPAtiPd6GyAVl/YsWpRhKRCujNDWWdy8QwNjWnsPVGIwmwYb622h5kYF3zDV9ZGJ7fEES7cHP4AZemOAA38dE6KgxJJGKtfnfOmhSFrwHm1L4sFFE1IXQDOE71HlW7DKs7OhsGTw7GIPyDhNiQV1L2vOO0pAHpo/WvyRm4GCSeM145a9SFd3j8sgYeqlssNqhwIY0b7HqUiRPd2TjfE/g8JOjUT//33/gAAAABJRU5ErkJggg==;" vertex="1" parent="1">
          <mxGeometry x="561" y="620.5" width="39" height="39" as="geometry" />
        </mxCell>
        <mxCell id="Ff6j8b3z-YvI5tU1uBFp-22" value="" style="group" vertex="1" connectable="0" parent="1">
          <mxGeometry x="600" y="810" width="157" height="120" as="geometry" />
        </mxCell>
        <mxCell id="Ff6j8b3z-YvI5tU1uBFp-23" value="faipt-stomp&lt;br&gt;&lt;br&gt;&lt;br&gt;&lt;br&gt;&lt;br&gt;&lt;br&gt;&lt;br&gt;" style="rounded=1;whiteSpace=wrap;html=1;" vertex="1" parent="Ff6j8b3z-YvI5tU1uBFp-22">
          <mxGeometry x="20.559438320450077" width="136.44056167954992" height="120" as="geometry" />
        </mxCell>
        <mxCell id="Ff6j8b3z-YvI5tU1uBFp-24" value="" style="group" vertex="1" connectable="0" parent="1">
          <mxGeometry x="720" y="843.66" width="130.79000000000002" height="123.66" as="geometry" />
        </mxCell>
        <mxCell id="Ff6j8b3z-YvI5tU1uBFp-25" value="" style="shape=or;whiteSpace=wrap;html=1;rotation=0;" vertex="1" parent="Ff6j8b3z-YvI5tU1uBFp-24">
          <mxGeometry x="59" y="9.999999999999998" width="16.09019805150254" height="29.999999999999993" as="geometry" />
        </mxCell>
        <mxCell id="Ff6j8b3z-YvI5tU1uBFp-26" value="ws&lt;br&gt;server" style="rounded=1;whiteSpace=wrap;html=1;" vertex="1" parent="Ff6j8b3z-YvI5tU1uBFp-24">
          <mxGeometry x="8.04509902575127" width="56.31569318025889" height="49.99999999999999" as="geometry" />
        </mxCell>
        <mxCell id="Ff6j8b3z-YvI5tU1uBFp-27" value="Client" style="outlineConnect=0;gradientColor=none;fontColor=#545B64;strokeColor=none;fillColor=#879196;dashed=0;verticalLabelPosition=bottom;verticalAlign=top;align=center;html=1;fontSize=12;fontStyle=0;aspect=fixed;shape=mxgraph.aws4.illustration_devices;pointerEvents=1" vertex="1" parent="1">
          <mxGeometry x="860" y="810" width="73.42" height="53.66" as="geometry" />
        </mxCell>
        <mxCell id="Ff6j8b3z-YvI5tU1uBFp-28" value="Client" style="outlineConnect=0;gradientColor=none;fontColor=#545B64;strokeColor=none;fillColor=#879196;dashed=0;verticalLabelPosition=bottom;verticalAlign=top;align=center;html=1;fontSize=12;fontStyle=0;aspect=fixed;shape=mxgraph.aws4.illustration_devices;pointerEvents=1" vertex="1" parent="1">
          <mxGeometry x="860" y="863.66" width="73.42" height="53.66" as="geometry" />
        </mxCell>
        <mxCell id="Ff6j8b3z-YvI5tU1uBFp-29" style="edgeStyle=orthogonalEdgeStyle;rounded=0;orthogonalLoop=1;jettySize=auto;html=1;exitX=1;exitY=0.5;exitDx=0;exitDy=0;exitPerimeter=0;entryX=1;entryY=0.5;entryDx=0;entryDy=0;entryPerimeter=0;" edge="1" parent="1" source="Ff6j8b3z-YvI5tU1uBFp-10" target="Ff6j8b3z-YvI5tU1uBFp-19">
          <mxGeometry relative="1" as="geometry" />
        </mxCell>
        <mxCell id="Ff6j8b3z-YvI5tU1uBFp-30" style="edgeStyle=orthogonalEdgeStyle;rounded=0;orthogonalLoop=1;jettySize=auto;html=1;exitX=1;exitY=0.5;exitDx=0;exitDy=0;exitPerimeter=0;entryX=1;entryY=0.5;entryDx=0;entryDy=0;entryPerimeter=0;" edge="1" parent="1" target="Ff6j8b3z-YvI5tU1uBFp-19">
          <mxGeometry relative="1" as="geometry">
            <mxPoint x="387" y="241.6438356164383" as="sourcePoint" />
          </mxGeometry>
        </mxCell>
        <mxCell id="Ff6j8b3z-YvI5tU1uBFp-31" style="edgeStyle=orthogonalEdgeStyle;rounded=0;orthogonalLoop=1;jettySize=auto;html=1;exitX=1;exitY=0.5;exitDx=0;exitDy=0;exitPerimeter=0;entryX=1;entryY=0.5;entryDx=0;entryDy=0;entryPerimeter=0;" edge="1" parent="1" source="Ff6j8b3z-YvI5tU1uBFp-15" target="Ff6j8b3z-YvI5tU1uBFp-19">
          <mxGeometry relative="1" as="geometry" />
        </mxCell>
        <mxCell id="Ff6j8b3z-YvI5tU1uBFp-32" style="edgeStyle=orthogonalEdgeStyle;rounded=0;orthogonalLoop=1;jettySize=auto;html=1;" edge="1" parent="1" source="Ff6j8b3z-YvI5tU1uBFp-33" target="Ff6j8b3z-YvI5tU1uBFp-43">
          <mxGeometry relative="1" as="geometry" />
        </mxCell>
        <mxCell id="Ff6j8b3z-YvI5tU1uBFp-33" value="redis socket session manager" style="shape=image;verticalLabelPosition=bottom;labelBackgroundColor=default;verticalAlign=top;aspect=fixed;imageAspect=0;image=data:image/png,iVBORw0KGgoAAAANSUhEUgAAAIEAAACBCAMAAADQfiliAAAAulBMVEX///+6FBqTFht2GBu3AACQFhu9FBr16uq2FBqbMDKSERe6EBexFBqOAAC0AACiFRqsFBqcFRq4AAm5CBGnFRqRAAzixseQAAb24+T89/f68fHEREfovL2/NDa7GyC8ICWWISXx1dbRc3XZjI7bl5nUfoDHVVfhqKrFTE/jsbLsx8h/Fxu4JiquKi/IlpeqVlfOaWvKXmC+gYOeP0G2cXKjKi64am3cu7ytX2DVrq+FAAC9ioqoTE/QoqP3rLj+AAAJfUlEQVR4nO1b63aizBINCGhAUEATVEAQ8RbMbWLMZCbv/1qnu/ECdFVjMibfWmdZP2ZWZoDaVb2randDrq4udrGLXexi/xcW+9MkfZykydz3ft77wH+0FGqOQ/+03CT+Uf/edKQoUtEMRZr5w5/yv5o4iitVzXCsYPoTqzGck/ANzv8uEcqj/83+43QfvgGiMBzlOxMxnC/cffhGMEYy4Srh42rwHf69JLDcg1MliVOlyAb3+BNZjMXy3BgG/swqsc+dkX+cLyzHIOvhKJYymsyTY1JcS0nPWZ4kfMWpLLjEVjueSIoRTKYrUohxaVloIvzmWdwPVhMDKD5rR3rP9/I24LtVXhBWnqFPDacLqPhcxZqUL1y6PEqSCPcfy3M1cbnwDeLdGiWrcobnFgBAYn0q+3J5NucBH76hjBeJzxPdS0OsT5EqefpKecZpALXebL7y4Kd5aUvQKxfzz7Fy4D9ZgP/8YeHoiU7kFUcyLzEc6B6WiE+Vp5eEFvoo2o9dMpEty1rmlzfTdDqfz5f+Ko4nMBsOiThlepLB75QL23Bdx3FctzoJ3IDdsAqUg0nj4zWa1utKWvkORaotTzb4jeI9ipSNFk9Ps8UoMyrEtFbkjnmxCo8gNal311D1XquaCEMoI+LJuNzqrSDx4+aQUm8w9OJlOrYKIJzHq6sJyD5Ns+8ajYYqq3KnVc4DkxEwhuY8Kz6ewB0By+ZNs+NF1nJUVko7/225wUyVZVlV7Ta3GBZfnoM4HZfJrwTIeBtOj3kH+qAmddVG44iAmt2tXuWQ8Ip9aricVXuPM8LrNw5RxmtS567RqCKQeUJQGZGu9k9ccpNPMkJRJ/WRWtVadsF/AYEMEIKW5yz3klg8mZREAODq6gmCcFh+CAEF0WlXb3EUWpyxA7DZEk+0BCJg564hREBI2eEgzAjZfOhpNTmYgURo23dCBHwOiNwkdIvHQA4MQ8SDJQRaqvKwyoNKTeZ+KOFv5EwCJEiIt08fm4GsFasAAtWuNujcf7i+pgj68iYLuWe6IdK5vBQHwDBU+wHrSYAZ42yj7xDI8mY9ribCoCqP71ykcQv8MwwHQuQIOtVWwJ4ujdcbVT4ikNVonRl8wS5SP96ngsyFycgSJuAIwm7s5kKv2gbYk7VsE1G3BQQUBF2M6gSmOsCylP1fsGrZKYYSBkoIVe9qvH9DI+HvfJYRsERwiyGw3LHiGONg9phOuQrpceOAQguzzbFGqgiIkcUIgbRBnhUjC2ZEHvlxvmPg2hQQfr76cgXBbaVzCRLh0uVQlHHwlBJRVpascS1DDClbq+UuBSLIEwHmwX1Kpss4hqfmQiAtWUaMcvhCBDId6QCHDcHZwLymSFs9yA1DsDWh/yIjHahjsl9JYAzDMa6SJToyZC7+A4JhBCYB1FcUg/W4AhBM8BRorZ4NuidmPjMK/TL7yAWAtiET1Rotqw07xgG0O3D4JAGm+ZKTefj7wUTyQGcaP1RcJZiW6DhYwGtAw8f8y6b8elOI4RVLA8XKJ8JVsrRAiLkF+ReET+2+GERzOnN7Ono1SUSbJ4RyIEQz41sBmZG2ij/RboeFkwUv36ZqIsjQiCF7j3xH8cizoN0RuNeZaiV9Nclp4IeHB7TBot0bX56uMiKEWHEAurbgMaTVHPI4oxF4UoFFGr0ZXzte6tDNaIWGrZr1LF6r0LMgTqmSRIiewMv+kyMg07riK1eqwPlsF20htE+Bmo/5/0z4eQrXFIHNi0RWSAID+hQTZ4Jb7B4EuZfrgygA4+mK4qmKT03CWy8rPj5vGtFK8k6h6HQcA1eIy9PuttssF612uyeqfZ47ElXq2ToqKdVNNtb41SALK8gscaoTEzU+aOuea6WI3lVSaepmDWxdasqzxhj7uPhZ+PkzKzpRjTagSGwJWSkMH0i/VpSKvFIliQC2kTQR+Doj4QObdbZRWEeFq2ClCu3hSGl08NIA/JPig8IPopOUKklEyMOXSHmeCgBin1RV6gIExCJ+HFMTD/wdfnijRvpVxF8sVKpg8xX2XRnRluw2gVJtqog8gnQJa75oInaDH7gD47H5QvXBVoWzkPc9aEGRPoVcjNNHNx9ypea9vpvYVQipuekJF59Qd/VN8/6w72veP6BAsWdL3Y69G4a6TdYLWn3BcJOjt21J709coTaCxnGeY2LYfwlbaadV2AEO6KGuuNTgBo9bzTjRabtWwsnutKw5O7wnE2gjVp6n+j9NKxHBP2UZCApCsUYSQMXGuRdvFPQSs60ppFR7ArGlHqU2YvAufR9CVVq5I/q6mHtbKxZ80Gb2tDsBeekyrZzx2ki8kMgJpVgqAnsNekuuDzaINhJJPz6cOgYBkMNsr1RhXSJh4yR/pt1jOpV2olar3cPVogqGT4+1ikqVHaDxPG+JNoBUp9rM8h8wg9aMnirSYV3UB3q0CQCxLNwE1xssFgyiVXKxUNWJUQYxQljfYvc2MN6NXfggAoIBVsunaCPOoLKtHqpCKk0FDvrrtREQPsa+0mNgnUgP+qHyxM4EIf9Q8RmlM20RAhndNojKs3AzGL5WDf+IAFGq9JAdKI26PRx4SgCGf0QQY+d40XotcauhfeFkQQrXUQRrsP4D1WnP76hIJImA3m3D/R/W1oR9G8Q9lYr5meb2Gj3WZXu4k8pThQ5JDA3YJ+1NN823vVAb/H4wUbUcEVZC07Pb0emcpEY6L7ZLR1mjm/pz4VD3ahC/qLhix179tNrtbrfb3h2lVLMfrjfAPi23vvnrg3tN0PyI3vsoCHh6omYYYPHtw39/28KfV8QvMpoIrDxB/2Ok+Kj7vnl9D78nyrdP94KXDeomCOtfBmrsjAgJhKz+w7bmo6TB9u0WZwR41lQKPywfkpSsT9h30odZ3h9ZVJ5rFENefGj45t+Pk79oJokQbGbp6SP0zUJx8PPhm6eFX0jE8zXOSvq9QDkTZPBnkWCb/PfjC1+MNn9fo6+faJ/KcuJprBUFouIzH26++unuzQveK2X5etNZM7Px7LPi+6dPqIekPAUgakw3+1jv+YQNtq/61zCQ8P+c6aNl749gemJmmr9+n+d7ZWaD7V+8PAGjr1PP/isVJBHvpyVCvyXhf8u3882Pv33s4K8YfvR6832/zSEuT5mx79+Kr96GH6Q88dUvH9F9l8GJ0Pvv3x7+0aiMuK2EXz/4z2tseprmbb/fvyV/v99+dvKdxeLt/fPL68vL88f2P/idrotd7GIXu9i32P8AfOzwaX0N+p0AAAAASUVORK5CYII=;" vertex="1" parent="1">
          <mxGeometry x="344" y="670" width="60" height="60" as="geometry" />
        </mxCell>
        <mxCell id="Ff6j8b3z-YvI5tU1uBFp-34" value="" style="edgeStyle=orthogonalEdgeStyle;rounded=0;orthogonalLoop=1;jettySize=auto;html=1;" edge="1" parent="1" source="Ff6j8b3z-YvI5tU1uBFp-43" target="Ff6j8b3z-YvI5tU1uBFp-8">
          <mxGeometry relative="1" as="geometry" />
        </mxCell>
        <mxCell id="Ff6j8b3z-YvI5tU1uBFp-57" style="edgeStyle=orthogonalEdgeStyle;rounded=0;orthogonalLoop=1;jettySize=auto;html=1;exitX=0.5;exitY=0;exitDx=0;exitDy=0;exitPerimeter=0;entryX=0.5;entryY=0;entryDx=0;entryDy=0;flowAnimation=1;sketch=1;curveFitting=1;jiggle=2;" edge="1" parent="1" source="Ff6j8b3z-YvI5tU1uBFp-35" target="Ff6j8b3z-YvI5tU1uBFp-23">
          <mxGeometry relative="1" as="geometry">
            <mxPoint x="690" y="800" as="targetPoint" />
            <Array as="points">
              <mxPoint x="856" y="680" />
              <mxPoint x="856" y="770" />
              <mxPoint x="689" y="770" />
            </Array>
          </mxGeometry>
        </mxCell>
        <mxCell id="Ff6j8b3z-YvI5tU1uBFp-35" value="" style="shape=cylinder3;whiteSpace=wrap;html=1;boundedLbl=1;backgroundOutline=1;size=15;rotation=90;" vertex="1" parent="1">
          <mxGeometry x="781" y="640" width="30" height="80" as="geometry" />
        </mxCell>
        <mxCell id="Ff6j8b3z-YvI5tU1uBFp-36" style="edgeStyle=orthogonalEdgeStyle;rounded=1;orthogonalLoop=1;jettySize=auto;html=1;exitX=0.5;exitY=0;exitDx=0;exitDy=0;exitPerimeter=0;entryX=0.5;entryY=0;entryDx=0;entryDy=0;fillColor=#000000;curved=0;" edge="1" parent="1" source="Ff6j8b3z-YvI5tU1uBFp-37" target="Ff6j8b3z-YvI5tU1uBFp-23">
          <mxGeometry relative="1" as="geometry">
            <Array as="points">
              <mxPoint x="856" y="640" />
              <mxPoint x="856" y="770" />
              <mxPoint x="689" y="770" />
            </Array>
          </mxGeometry>
        </mxCell>
        <mxCell id="Ff6j8b3z-YvI5tU1uBFp-37" value="" style="shape=cylinder3;whiteSpace=wrap;html=1;boundedLbl=1;backgroundOutline=1;size=15;rotation=90;" vertex="1" parent="1">
          <mxGeometry x="781" y="600" width="30" height="80" as="geometry" />
        </mxCell>
        <mxCell id="Ff6j8b3z-YvI5tU1uBFp-38" style="edgeStyle=orthogonalEdgeStyle;rounded=0;orthogonalLoop=1;jettySize=auto;html=1;exitX=0.145;exitY=0;exitDx=0;exitDy=4.35;exitPerimeter=0;entryX=0.5;entryY=1;entryDx=0;entryDy=0;entryPerimeter=0;fillColor=#000000;" edge="1" parent="1" source="Ff6j8b3z-YvI5tU1uBFp-41" target="Ff6j8b3z-YvI5tU1uBFp-37">
          <mxGeometry relative="1" as="geometry" />
        </mxCell>
        <mxCell id="Ff6j8b3z-YvI5tU1uBFp-39" style="edgeStyle=orthogonalEdgeStyle;rounded=0;orthogonalLoop=1;jettySize=auto;html=1;exitX=0.5;exitY=0;exitDx=0;exitDy=0;exitPerimeter=0;entryX=0.5;entryY=1;entryDx=0;entryDy=0;entryPerimeter=0;fillColor=#000000;" edge="1" parent="1" source="Ff6j8b3z-YvI5tU1uBFp-41" target="Ff6j8b3z-YvI5tU1uBFp-35">
          <mxGeometry relative="1" as="geometry" />
        </mxCell>
        <mxCell id="Ff6j8b3z-YvI5tU1uBFp-40" style="edgeStyle=orthogonalEdgeStyle;rounded=0;orthogonalLoop=1;jettySize=auto;html=1;exitX=0.855;exitY=0;exitDx=0;exitDy=4.35;exitPerimeter=0;entryX=0.5;entryY=1;entryDx=0;entryDy=0;entryPerimeter=0;fillColor=#000000;" edge="1" parent="1" source="Ff6j8b3z-YvI5tU1uBFp-41" target="Ff6j8b3z-YvI5tU1uBFp-48">
          <mxGeometry relative="1" as="geometry" />
        </mxCell>
        <mxCell id="Ff6j8b3z-YvI5tU1uBFp-41" value="" style="shape=cylinder3;whiteSpace=wrap;html=1;boundedLbl=1;backgroundOutline=1;size=15;rotation=90;" vertex="1" parent="1">
          <mxGeometry x="656" y="645" width="30" height="70" as="geometry" />
        </mxCell>
        <mxCell id="Ff6j8b3z-YvI5tU1uBFp-42" value="" style="group" vertex="1" connectable="0" parent="1">
          <mxGeometry x="384" y="180" width="207" height="123.28767123287668" as="geometry" />
        </mxCell>
        <mxCell id="Ff6j8b3z-YvI5tU1uBFp-43" value="faipt-contents-server&lt;br&gt;&lt;br&gt;&lt;br&gt;&lt;br&gt;&lt;br&gt;&lt;br&gt;&lt;br&gt;&lt;br&gt;" style="rounded=1;whiteSpace=wrap;html=1;" vertex="1" parent="Ff6j8b3z-YvI5tU1uBFp-42">
          <mxGeometry x="27.10703014224947" width="179.89296985775053" height="123.28767123287669" as="geometry" />
        </mxCell>
        <mxCell id="Ff6j8b3z-YvI5tU1uBFp-44" value="" style="group" vertex="1" connectable="0" parent="Ff6j8b3z-YvI5tU1uBFp-42">
          <mxGeometry y="41.0958904109589" width="55.51118327768376" height="41.0958904109589" as="geometry" />
        </mxCell>
        <mxCell id="Ff6j8b3z-YvI5tU1uBFp-45" value="" style="shape=or;whiteSpace=wrap;html=1;rotation=-180;" vertex="1" parent="Ff6j8b3z-YvI5tU1uBFp-44">
          <mxGeometry y="8.219178082191778" width="13.87779581942094" height="24.657534246575334" as="geometry" />
        </mxCell>
        <mxCell id="Ff6j8b3z-YvI5tU1uBFp-46" value="ws&lt;br&gt;client" style="rounded=1;whiteSpace=wrap;html=1;" vertex="1" parent="Ff6j8b3z-YvI5tU1uBFp-44">
          <mxGeometry x="6.93889790971047" width="48.57228536797329" height="41.0958904109589" as="geometry" />
        </mxCell>
        <mxCell id="Ff6j8b3z-YvI5tU1uBFp-47" style="edgeStyle=orthogonalEdgeStyle;rounded=1;orthogonalLoop=1;jettySize=auto;html=1;exitX=0.5;exitY=0;exitDx=0;exitDy=0;exitPerimeter=0;fillColor=#000000;curved=0;" edge="1" parent="1" source="Ff6j8b3z-YvI5tU1uBFp-48" target="Ff6j8b3z-YvI5tU1uBFp-23">
          <mxGeometry relative="1" as="geometry" />
        </mxCell>
        <mxCell id="Ff6j8b3z-YvI5tU1uBFp-48" value="" style="shape=cylinder3;whiteSpace=wrap;html=1;boundedLbl=1;backgroundOutline=1;size=15;rotation=90;" vertex="1" parent="1">
          <mxGeometry x="781" y="680" width="30" height="80" as="geometry" />
        </mxCell>
        <mxCell id="Ff6j8b3z-YvI5tU1uBFp-49" style="edgeStyle=orthogonalEdgeStyle;rounded=0;orthogonalLoop=1;jettySize=auto;html=1;exitX=1;exitY=0.5;exitDx=0;exitDy=0;entryX=0.5;entryY=1;entryDx=0;entryDy=0;entryPerimeter=0;fillColor=#000000;" edge="1" parent="1" source="Ff6j8b3z-YvI5tU1uBFp-13" target="Ff6j8b3z-YvI5tU1uBFp-41">
          <mxGeometry relative="1" as="geometry" />
        </mxCell>
        <mxCell id="Ff6j8b3z-YvI5tU1uBFp-50" style="edgeStyle=orthogonalEdgeStyle;rounded=0;orthogonalLoop=1;jettySize=auto;html=1;exitX=1;exitY=0.5;exitDx=0;exitDy=0;entryX=0.5;entryY=1;entryDx=0;entryDy=0;entryPerimeter=0;fillColor=#000000;" edge="1" parent="1" source="Ff6j8b3z-YvI5tU1uBFp-8" target="Ff6j8b3z-YvI5tU1uBFp-41">
          <mxGeometry relative="1" as="geometry" />
        </mxCell>
        <mxCell id="Ff6j8b3z-YvI5tU1uBFp-51" style="edgeStyle=orthogonalEdgeStyle;rounded=0;orthogonalLoop=1;jettySize=auto;html=1;exitX=1;exitY=0.5;exitDx=0;exitDy=0;entryX=0.5;entryY=1;entryDx=0;entryDy=0;entryPerimeter=0;fillColor=#000000;" edge="1" parent="1" source="Ff6j8b3z-YvI5tU1uBFp-43" target="Ff6j8b3z-YvI5tU1uBFp-41">
          <mxGeometry relative="1" as="geometry" />
        </mxCell>
        <mxCell id="Ff6j8b3z-YvI5tU1uBFp-52" style="edgeStyle=orthogonalEdgeStyle;rounded=0;orthogonalLoop=1;jettySize=auto;html=1;exitX=1;exitY=0.5;exitDx=0;exitDy=0;exitPerimeter=0;fillColor=#000000;" edge="1" parent="1" source="Ff6j8b3z-YvI5tU1uBFp-25" target="Ff6j8b3z-YvI5tU1uBFp-27">
          <mxGeometry relative="1" as="geometry" />
        </mxCell>
        <mxCell id="Ff6j8b3z-YvI5tU1uBFp-53" style="edgeStyle=orthogonalEdgeStyle;rounded=0;orthogonalLoop=1;jettySize=auto;html=1;exitX=1;exitY=0.5;exitDx=0;exitDy=0;exitPerimeter=0;fillColor=#000000;" edge="1" parent="1" source="Ff6j8b3z-YvI5tU1uBFp-25" target="Ff6j8b3z-YvI5tU1uBFp-28">
          <mxGeometry relative="1" as="geometry" />
        </mxCell>
        <mxCell id="Ff6j8b3z-YvI5tU1uBFp-54" style="edgeStyle=orthogonalEdgeStyle;rounded=0;orthogonalLoop=1;jettySize=auto;html=1;exitX=0;exitY=0.5;exitDx=0;exitDy=0;fillColor=#000000;entryX=0.5;entryY=1;entryDx=0;entryDy=0;" edge="1" parent="1" source="Ff6j8b3z-YvI5tU1uBFp-23" target="Ff6j8b3z-YvI5tU1uBFp-33">
          <mxGeometry relative="1" as="geometry" />
        </mxCell>
      </root>
    </mxGraphModel>
  </diagram>
</mxfile>
